Coordinates
version=1
nRows=21
nColumns=22
inDegrees=yes

Units are S.I. units (second, meters, Newtons, ...)
If the header above contains a line with 'inDegrees', this indicates whether rotational values are in degrees (yes) or radians (no).

endheader
time	pelvis_tilt	pelvis_list	pelvis_rotation	pelvis_tx	pelvis_ty	pelvis_tz	hip_flexion_r	hip_adduction_r	hip_rotation_r	knee_angle_r	ankle_angle_r	subtalar_angle_r	hip_flexion_l	hip_adduction_l	hip_rotation_l	knee_angle_l	ankle_angle_l	subtalar_angle_l	lumbar_extension	lumbar_bending	lumbar_rotation
      4.22000000	      4.38856790	      3.18278900	     84.19897930	      0.89352746	      1.06758691	      0.01786755	     12.07303408	      2.73004159	      4.17600271	    -16.39340483	      4.66950201	      4.61176774	     -7.58717882	     -4.90466948	     16.43220717	    -35.57057497	      5.72093871	      6.86567919	     -1.38426763	      0.89499702	     -8.49286621
      4.23000000	      4.65862180	      3.36280357	     84.80856971	      0.89775892	      1.06880517	      0.01067206	     11.15749357	      3.10561990	      3.55715476	    -15.93927159	      4.62433483	      3.93785123	     -7.28466296	     -5.42716895	     16.32705626	    -36.77916682	      4.41518140	      7.23871601	     -1.48401754	      1.07834218	     -8.53596256
      4.24000000	      4.94523322	      3.52684457	     85.42311544	      0.90184557	      1.06989470	      0.00368769	     10.26331458	      3.50681678	      2.94657367	    -15.45867887	      4.60994526	      3.46390478	     -6.89907954	     -5.95852957	     16.24031507	    -38.06025503	      3.16873553	      7.39049231	     -1.58562445	      1.29021983	     -8.57595903
      4.25000000	      5.21635178	      3.70019405	     86.00115432	      0.90587134	      1.07095034	     -0.00315935	      9.35026103	      3.90809216	      2.37829076	    -14.92623903	      4.60922509	      2.98932448	     -6.49734592	     -6.45791841	     16.14331213	    -39.34624007	      1.93321814	      7.39668702	     -1.70003648	      1.48499755	     -8.54466408
      4.26000000	      5.47233458	      3.85241967	     86.55749171	      0.90979607	      1.07192185	     -0.00980486	      8.47274045	      4.30773882	      1.85331240	    -14.37891180	      4.62602187	      2.61131297	     -6.02967088	     -6.92418446	     16.04538822	    -40.66016038	      0.69729591	      7.25574151	     -1.80151365	      1.67186105	     -8.46798615
      4.27000000	      5.71513318	      3.97410008	     87.10564591	      0.91361439	      1.07278402	     -0.01618955	      7.65528635	      4.70725851	      1.37829447	    -13.83999974	      4.67022528	      2.35482606	     -5.47356887	     -7.36008299	     15.95661446	    -42.01698807	     -0.51252183	      7.03983088	     -1.88974363	      1.84867342	     -8.36756396
      4.28000000	      5.93737219	      4.07137641	     87.63724490	      0.91732335	      1.07356637	     -0.02236264	      6.88719845	      5.09646594	      0.93956644	    -13.30657862	      4.73554932	      2.14298659	     -4.85378182	     -7.75568354	     15.86052010	    -43.38648940	     -1.73355182	      6.73819308	     -1.96205204	      2.00985522	     -8.22389884
      4.29000000	      6.13232359	      4.14117045	     88.15056335	      0.92091358	      1.07425622	     -0.02829231	      6.18280721	      5.46669335	      0.53872645	    -12.79762005	      4.81608746	      1.97336944	     -4.16241352	     -8.10342170	     15.74798007	    -44.77295854	     -2.96865676	      6.41332943	     -2.02013404	      2.15020515	     -8.04629147
      4.30000000	      6.29688781	      4.19135757	     88.64258766	      0.92439801	      1.07488158	     -0.03399227	      5.52430548	      5.81227366	      0.15937843	    -12.29387499	      4.86375151	      1.86454417	     -3.41798440	     -8.40152250	     15.61584350	    -46.15968855	     -4.19816864	      6.24389836	     -2.07226762	      2.26055887	     -7.83248093
      4.31000000	      6.44596792	      4.22402554	     89.12530366	      0.92774675	      1.07540616	     -0.03945371	      4.91540040	      6.14814264	     -0.19071048	    -11.81540055	      4.95900015	      1.73243583	     -2.61974538	     -8.66464541	     15.47322115	    -47.55116519	     -5.41116522	      6.06898749	     -2.12413136	      2.36469701	     -7.60280877
      4.32000000	      6.57039379	      4.24727224	     89.58430276	      0.93097973	      1.07585724	     -0.04468309	      4.34467932	      6.46310685	     -0.51296131	    -11.35506713	      5.05832584	      1.59474934	     -1.78743336	     -8.88539758	     15.30134267	    -48.92868981	     -6.59592550	      5.99789427	     -2.18397266	      2.44965103	     -7.34981228
      4.33000000	      6.67264331	      4.27242899	     90.01844733	      0.93412191	      1.07625579	     -0.04970937	      3.79399658	      6.75922505	     -0.81497721	    -10.90628943	      5.15195320	      1.46160499	     -0.94442232	     -9.07290276	     15.09390724	    -50.27339543	     -7.72698557	      6.06882996	     -2.26185521	      2.51405284	     -7.07207904
      4.34000000	      6.77911986	      4.26376134	     90.44480376	      0.93715002	      1.07652394	     -0.05451565	      3.30870869	      7.06376193	     -1.10287285	    -10.48158505	      5.26883748	      1.26070050	     -0.04322510	     -9.25270016	     14.87954190	    -51.59675191	     -8.74640854	      6.26100681	     -2.31737691	      2.59182093	     -6.80363176
      4.35000000	      6.86513473	      4.26644305	     90.83471797	      0.94008992	      1.07677190	     -0.05916762	      2.83360467	      7.34732309	     -1.37170071	    -10.07563679	      5.35763596	      1.07478940	      0.83650361	     -9.40648906	     14.61406778	    -52.85044523	     -9.64581157	      6.60645597	     -2.39250893	      2.65538268	     -6.50737693
      4.36000000	      6.94478842	      4.27272702	     91.19715036	      0.94293509	      1.07698063	     -0.06366379	      2.37860679	      7.62451915	     -1.61972968	     -9.69247773	      5.44360593	      0.89889240	      1.70318260	     -9.54728806	     14.31548806	    -54.03352664	    -10.37948239	      7.00276050	     -2.47841023	      2.71878120	     -6.19893115
      4.37000000	      7.01874527	      4.27916786	     91.53280847	      0.94568527	      1.07714601	     -0.06800201	      1.95261132	      7.89391958	     -1.84400919	     -9.34242095	      5.53089864	      0.73180132	      2.55454014	     -9.67432802	     13.99205640	    -55.13654670	    -10.89555025	      7.34903757	     -2.57200413	      2.78324623	     -5.88832509
      4.38000000	      7.08228641	      4.29481415	     91.83975899	      0.94832597	      1.07729787	     -0.07221434	      1.54243268	      8.14831081	     -2.05558291	     -9.02383071	      5.61368480	      0.59245660	      3.36894553	     -9.77992077	     13.64431420	    -56.14191806	    -11.15752073	      7.55073548	     -2.67870233	      2.84489645	     -5.58063979
      4.39000000	      7.13552757	      4.30950701	     92.13018638	      0.95084768	      1.07741427	     -0.07630722	      1.16367775	      8.38621306	     -2.25991994	     -8.74664911	      5.71343757	      0.46032118	      4.15566447	     -9.86878937	     13.27934197	    -57.04074616	    -11.09132425	      7.60569201	     -2.78331781	      2.90359547	     -5.29167227
      4.40000000	      7.17150075	      4.31029581	     92.40231406	      0.95324840	      1.07748723	     -0.08025935	      0.83227831	      8.59919624	     -2.45589165	     -8.51399576	      5.82327022	      0.31802017	      4.92521027	     -9.91862428	     12.92331735	    -57.83309769	    -10.67957847	      7.49952142	     -2.87591027	      2.95035494	     -5.02022748
      4.41000000	      7.20076784	      4.30763117	     92.66406581	      0.95552525	      1.07753229	     -0.08408797	      0.53397158	      8.79881449	     -2.64632025	     -8.32151528	      5.95140763	      0.17238399	      5.66651386	     -9.94862454	     12.57142747	    -58.51165961	     -9.93437385	      7.22591143	     -2.96363725	      2.99687274	     -4.77441247
      4.42000000	      7.21305416	      4.29043050	     92.92696575	      0.95767794	      1.07753904	     -0.08777911	      0.27533095	      8.97466414	     -2.81524634	     -8.15904130	      6.08332678	      0.00749652	      6.39371855	     -9.94383672	     12.24169139	    -59.07527570	     -8.88371893	      6.77523049	     -3.03549423	      3.02638701	     -4.54834561
